<svg width="128" height="128" viewBox="0 0 128 128" xmlns="http://www.w3.org/2000/svg">
<defs>
  <radialGradient id="gl" cx="50%" cy="50%" r="50%">
    <stop offset="0%" stop-color="#38A3B8" stop-opacity="0.28"/>
    <stop offset="100%" stop-color="#38A3B8" stop-opacity="0"/>
  </radialGradient>
  <radialGradient id="gr" cx="50%" cy="50%" r="50%">
    <stop offset="0%" stop-color="#38A3B8" stop-opacity="0.28"/>
    <stop offset="100%" stop-color="#38A3B8" stop-opacity="0"/>
  </radialGradient>
</defs>

<rect x="0" y="0" width="128" height="128" rx="20" fill="#080B0F"/>
<rect x="1" y="1" width="126" height="126" rx="19.5" fill="none" stroke="#1C2535" stroke-width="1.5"/>

<circle cx="64" cy="54" r="44" fill="none" stroke="#38A3B8" stroke-width="0.8" stroke-opacity="0.16" stroke-dasharray="4 5"/>
<circle cx="64" cy="54" r="56" fill="none" stroke="#38A3B8" stroke-width="0.5" stroke-opacity="0.08" stroke-dasharray="3 7"/>

<path d="M30 64 Q30 20 64 20 Q98 20 98 64 L98 102 Q89 94 80 102 Q71 110 64 102 Q57 110 48 102 Q39 94 30 102 Z"
  fill="#E2E8F0" stroke="#263040" stroke-width="1.2"/>

<ellipse cx="51" cy="52" rx="13" ry="14" fill="url(#gl)"/>
<ellipse cx="77" cy="52" rx="13" ry="14" fill="url(#gr)"/>

<ellipse cx="51" cy="52" rx="7.5" ry="8.5" fill="#1A3D47"/>
<ellipse cx="77" cy="52" rx="7.5" ry="8.5" fill="#1A3D47"/>

<ellipse cx="51" cy="52" rx="4.5" ry="5" fill="#38A3B8"/>
<ellipse cx="77" cy="52" rx="4.5" ry="5" fill="#38A3B8"/>

<circle cx="52" cy="53" r="2" fill="#080B0F"/>
<circle cx="78" cy="53" r="2" fill="#080B0F"/>

<circle cx="49" cy="49" r="1.3" fill="#4AB3C7" opacity="0.9"/>
<circle cx="75" cy="49" r="1.3" fill="#4AB3C7" opacity="0.9"/>

<circle cx="106" cy="35" r="3.5" fill="#FF8C00" opacity="0.9"/>
<circle cx="110" cy="67" r="2.5" fill="#FF8C00" opacity="0.65"/>
<circle cx="18"  cy="42" r="3"   fill="#FF8C00" opacity="0.8"/>
<circle cx="21"  cy="72" r="2"   fill="#FF8C00" opacity="0.5"/>

<line x1="98" y1="57" x2="103" y2="37" stroke="#334455" stroke-width="0.8" stroke-opacity="0.7"/>
<line x1="98" y1="72" x2="107" y2="67" stroke="#334455" stroke-width="0.6" stroke-opacity="0.5"/>
<line x1="30" y1="54" x2="21"  y2="44" stroke="#334455" stroke-width="0.7" stroke-opacity="0.6"/>
</svg>
